# xmcd CD database file generated by Grip 2.96
# 
# Track frame offsets:
#       150
#       39857
#       54602
#       74622
#       96392
#       120667
#       189400
#       208755
# 
# Disc length: 2966 seconds
# 
# Revision: 0
# Processed by: cddbd v1.4PL0 Copyright (c) Steve Scherf et al.
# Submitted via: Grip 2.96
# 
DISCID=730b9408
DTITLE=Blind Faith - Blind Faith
DYEAR=1900
DGENRE=
TTITLE0=Had to Cry Today
TTITLE1=Can't Find My Way Home
TTITLE2=Well All Right
TTITLE3=Presence of the Lord
TTITLE4=Sea of Joy
TTITLE5=Do What You Like
TTITLE6=Exchange And Mart
TTITLE7=Spending All My Days
EXTD=
EXTT0=
EXTT1=
EXTT2=
EXTT3=
EXTT4=
EXTT5=
EXTT6=
EXTT7=
PLAYORDER=
